# xmcd
#
# Track frame offsets:
#	150
#	12111
#	24735
#	34557
#	48688
#	60155
#	69124
#	84196
#	98290
#	108842
#	126108
#	136628
#	150069
#
# Disc length: 2145 seconds
#
# Revision: 0
# Processed by: cddbd v1.5.2PL0 Copyright (c) Steve Scherf et al.
# Submitted via: FairStars CD Ripper 1.90
#
DISCID=7f085f0d
DTITLE=The Tri-County Ramblers - Big Time
DYEAR=1999
DGENRE=Country
TTITLE0=South 40 Blues
TTITLE1=My Broen Eyed Darling
TTITLE2=Big Tilda
TTITLE3=Don't Let Your Hang-Ups Bring You Down
TTITLE4=Please Don't Make Me Cry
TTITLE5=Lady Of The Lake
TTITLE6=That's The Way It's Gonna Be (If That's The Way You Want It)
TTITLE7=Wipe My Tears Away
TTITLE8=Lost Train Blues
TTITLE9=Big Time
TTITLE10=(Down The) Road To Love
TTITLE11=Wings Of Angels
TTITLE12=Eight Of January
EXTD=
EXTT0=
EXTT1=
EXTT2=
EXTT3=
EXTT4=
EXTT5=
EXTT6=
EXTT7=
EXTT8=
EXTT9=
EXTT10=
EXTT11=
EXTT12=
PLAYORDER=
